<?xml version="1.0" encoding="utf-8"?>
<!-- Generator: Adobe Illustrator 21.0.0, SVG Export Plug-In . SVG Version: 6.00 Build 0)  -->
<svg version="1.1"
	 id="svg2" inkscape:version="0.91 r13725" sodipodi:docname="logo.svg" xmlns:cc="http://creativecommons.org/ns#" xmlns:dc="http://purl.org/dc/elements/1.1/" xmlns:inkscape="http://www.inkscape.org/namespaces/inkscape" xmlns:rdf="http://www.w3.org/1999/02/22-rdf-syntax-ns#" xmlns:sodipodi="http://sodipodi.sourceforge.net/DTD/sodipodi-0.dtd" xmlns:svg="http://www.w3.org/2000/svg"
	 xmlns="http://www.w3.org/2000/svg" xmlns:xlink="http://www.w3.org/1999/xlink" x="0px" y="0px" viewBox="0 0 530.1 85"
	 style="enable-background:new 0 0 530.1 85;" xml:space="preserve">
<style type="text/css">
	.st0{enable-background:new    ;}
	.st1{fill:#FFFFFF;}
</style>
<sodipodi:namedview  bordercolor="#666666" borderopacity="1.0" id="base" inkscape:current-layer="layer1" inkscape:cx="304.67733" inkscape:cy="120.95918" inkscape:document-units="px" inkscape:pageopacity="0.0" inkscape:pageshadow="2" inkscape:window-height="1416" inkscape:window-maximized="1" inkscape:window-width="2495" inkscape:window-x="2625" inkscape:window-y="24" inkscape:zoom="1.4" pagecolor="#ffffff" showgrid="false">
	</sodipodi:namedview>
<g id="layer1" transform="translate(0,-946.063)" inkscape:groupmode="layer" inkscape:label="Layer 1">
	<g class="st0">
		<path class="st1" d="M57.6,999c1.3,1.4-3,28.4-24.3,28.4c-13.9,0-27-12.1-24.6-32.9c1.1-11,6.5-21.5,10.6-27.1
			c-3.4-2.4-6.2-4.3-8.1-4.3c-6.4,0-6.2,4.3-9.5,4.3c-1.3,0-1.9-0.9-1.9-1.8c0-2.9,2.2-6.6,11.5-6.6c3.8,0,7.6,1.9,11.6,4.5
			c7-7,15.8-9.7,22.7-9.7c11.1,0,16.8,11,16.8,17.5c-0.3,5.1-3.9,11-13.6,11c-7.1,0-14.4-4-20.7-8.6c-3,4.7-7.2,15-7.5,24.2
			c-0.5,9.4,4.7,18.3,14.7,18.3c9.2,0,12.7-8.4,14.9-13.6C53.1,995.8,56.2,997.9,57.6,999z M31.2,969.5c5.7,3.9,11.5,7.5,17.4,7.5
			c8.6,0,7.2-5.8,4.4-9.7c-1.7-2.1-4.2-4.1-7.6-4.1C41.6,963.2,36.2,964.5,31.2,969.5z"/>
		<path class="st1" d="M97.2,1008.9c-6.1,15.8-14.1,21.2-24,19.1c-9.8-1.7-16.4-18.6-8.2-35.1c8.3-17,19.6-21.3,26.3-19.6
			C100.4,975.8,102.2,995.8,97.2,1008.9z M88.6,981.6c-5.4,0-13.4,10-16.4,18.9c-2.8,8.8,0.2,17,5.8,17c5.8,0,10.6-6.8,13.3-16.5
			C93.7,993.1,93,981.6,88.6,981.6z"/>
		<path class="st1" d="M135.9,1008.9c-6.1,15.8-14.1,21.2-24,19.1c-9.8-1.7-16.4-18.6-8.2-35.1c8.3-17,19.6-21.3,26.3-19.6
			C139,975.8,140.9,995.8,135.9,1008.9z M127.2,981.6c-5.4,0-13.4,10-16.4,18.9c-2.8,8.8,0.2,17,5.8,17c5.8,0,10.6-6.8,13.3-16.5
			C132.4,993.1,131.6,981.6,127.2,981.6z"/>
		<path class="st1" d="M156.1,1021.2c1.6,2.6-3.6,6.3-5.9,6.3c-2.2,0-4.8-1.1-6.6-4c-8.7-16.8-0.5-61.5,2.7-69.3
			c2.3-5.6,7.3-6,8.6-5.6c3.6,0.7,3.4,2.7,2.5,5.1c-4.6,12.4-7.7,26.6-6.6,43.9C151.9,1015.5,155.1,1019.5,156.1,1021.2z
			 M172.2,1025.7c-6.9,0-16.7-15.9-18.2-20c-1.5-3.5-3.2-7,0.9-9.6c7.6-4.9,14-13.2,14.5-17.3c0.4-4-13.1,12-14.9,13.9
			c-0.3-0.3-0.5-0.6-0.6-1.1c-0.1-0.7,0.1-2,1.6-4c2.8-4,13-18.4,18.6-11.5c3.4,4.4-1.6,18.1-14,23.7c3.1,7.3,14.6,13.1,17.3,13.1
			C179.4,1013,176.4,1025.7,172.2,1025.7z"/>
		<path class="st1" d="M215.1,989.8c0.3,13.2-4.3,27.4-13.6,34.6c-3.8,3.1-6.8,3.8-9.1,2.2c-1.1,1-2.4,1.8-4.1,1.8
			c-2.2,0-3.7-1-5.6-4.3c-9.1-16.7-0.3-63.3,2.8-71c2.5-5.8,6.2-6,7.6-5.6c3.7,0.5,3.6,2.7,2.5,5.2c-3.8,10.5-6.5,21.9-6.8,35.6
			c1.8-6.7,5.8-13.2,12.5-13.2C207.6,975.1,215.1,979.9,215.1,989.8z M198.9,984.7c-4.4,0-7.5,9-9.8,15c0.4,5.1,0.9,9,1.6,12.1
			c1.5-2.2,2.4-1.3,2.7,2.9c0.1,1.4,1.4,3.6,3.4,3.6C201.9,1018.3,209.4,984.7,198.9,984.7z"/>
		<path class="st1" d="M252.1,1008.9c-6.1,15.8-14.1,21.2-24,19.1c-9.8-1.7-16.4-18.6-8.2-35.1c8.3-17,19.6-21.3,26.3-19.6
			C255.2,975.8,257,995.8,252.1,1008.9z M243.4,981.6c-5.4,0-13.4,10-16.4,18.9c-2.8,8.8,0.2,17,5.8,17c5.8,0,10.6-6.8,13.3-16.5
			C248.6,993.1,247.8,981.6,243.4,981.6z"/>
		<path class="st1" d="M290.7,1008.9c-6.1,15.8-14.1,21.2-24,19.1c-9.8-1.7-16.4-18.6-8.2-35.1c8.3-17,19.6-21.3,26.3-19.6
			C293.8,975.8,295.7,995.8,290.7,1008.9z M282.1,981.6c-5.4,0-13.4,10-16.4,18.9c-2.8,8.8,0.2,17,5.8,17c5.8,0,10.6-6.8,13.3-16.5
			C287.2,993.1,286.4,981.6,282.1,981.6z"/>
		<path class="st1" d="M311,1021.2c1.6,2.6-3.6,6.3-5.9,6.3c-2.2,0-4.8-1.1-6.6-4c-8.7-16.8-0.5-61.5,2.7-69.3
			c2.3-5.6,7.3-6,8.6-5.6c3.6,0.7,3.4,2.7,2.5,5.1c-4.6,12.4-7.7,26.6-6.6,43.9C306.7,1015.5,309.9,1019.5,311,1021.2z M327,1025.7
			c-6.9,0-16.7-15.9-18.2-20c-1.5-3.5-3.2-7,0.9-9.6c7.6-4.9,14-13.2,14.5-17.3c0.4-4-13.1,12-14.9,13.9c-0.3-0.3-0.5-0.6-0.6-1.1
			c-0.1-0.7,0.1-2,1.6-4c2.8-4,13-18.4,18.6-11.5c3.4,4.4-1.6,18.1-14,23.7c3.1,7.3,14.6,13.1,17.3,13.1
			C334.2,1013,331.2,1025.7,327,1025.7z"/>
		<path class="st1" d="M406,1029.8c-13.3,0-12-25.2-10-36.6c0.3-1.8,1-5.2,1.7-8.7c0.6-4.8-0.5-10.3-5.4-8.6
			c-4.7,1.7-10.3,18.8-14.3,28.6c0.4,3.8-0.5,23.5-10.6,23.5c-3.9,0-6.4-4-7-5.5c-0.3-0.7-0.1-0.6,0.4-1.4c1.3-2,4.4-6.6,6.2-26.6
			c1.6-16.2-2.3-31.6-5.4-36.6c-0.3-0.3-1.2-1.7,1.7-3.4c1.3-0.9,4.6-1.5,8,2.4c6.6,8.1,6.1,26.6,5.4,34.8l0.1-0.1
			c1.3-1.8,11.6-32.7,22.2-32.7c9,0,11.7,6.6,10,16.3c-3.9,21.4-5.9,42.5,2.8,46.1c0.9,0.1,1.5,0.1,1.5,1.1
			C413.2,1023.5,413.6,1029.8,406,1029.8z"/>
		<path class="st1" d="M449.1,1008.9c-6.1,15.8-14.1,21.2-24,19.1c-9.8-1.7-16.4-18.6-8.2-35.1c8.3-17,19.6-21.3,26.3-19.6
			C452.3,975.8,454.1,995.8,449.1,1008.9z M440.5,981.6c-5.4,0-13.4,10-16.4,18.9c-2.8,8.8,0.2,17,5.8,17c5.8,0,10.6-6.8,13.3-16.5
			C445.6,993.1,444.9,981.6,440.5,981.6z"/>
		<path class="st1" d="M487.8,1008.9c-6.1,15.8-14.1,21.2-24,19.1c-9.8-1.7-16.4-18.6-8.2-35.1c8.3-17,19.6-21.3,26.3-19.6
			C490.9,975.8,492.8,995.8,487.8,1008.9z M479.1,981.6c-5.4,0-13.4,10-16.4,18.9c-2.8,8.8,0.2,17,5.8,17c5.8,0,10.6-6.8,13.3-16.5
			C484.3,993.1,483.5,981.6,479.1,981.6z"/>
		<path class="st1" d="M508.1,1021.2c1.6,2.6-3.6,6.3-5.9,6.3c-2.2,0-4.8-1.1-6.6-4c-8.7-16.8-0.5-61.5,2.7-69.3
			c2.3-5.6,7.3-6,8.6-5.6c3.6,0.7,3.4,2.7,2.5,5.1c-4.6,12.4-7.7,26.6-6.6,43.9C503.8,1015.5,507,1019.5,508.1,1021.2z
			 M524.1,1025.7c-6.9,0-16.7-15.9-18.2-20c-1.5-3.5-3.2-7,0.9-9.6c7.6-4.9,14-13.2,14.5-17.3c0.4-4-13.1,12-14.9,13.9
			c-0.3-0.3-0.5-0.6-0.6-1.1c-0.1-0.7,0.1-2,1.6-4c2.8-4,13-18.4,18.6-11.5c3.4,4.4-1.6,18.1-14,23.7c3.1,7.3,14.6,13.1,17.3,13.1
			C531.3,1013,528.3,1025.7,524.1,1025.7z"/>
	</g>
</g>
</svg>
